<svg xmlns="http://www.w3.org/2000/svg" viewBox="0 0 91 27">
<g>
	<g>
		<polygon fill="#673ab7" points="18.1,18 18.1,18 9.1,9 18.1,0 9,0 0,9 4.5,13.5 9.1,18 13.6,22.5 		"/>
		<polygon fill="#673ab7" points="25.3,13.5 20.8,9 16.2,4.5 11.8,9 20.8,18 20.8,18 20.8,18 11.7,27 20.8,27 25.3,22.5 29.8,18 		
			"/>
	</g>
	<g>
		<path fill="#673ab7" d="M42.1,10.3c-0.8,0-1.4,0.3-1.8,1c-0.4,0.6-0.7,1.5-0.7,2.7c0,2.4,0.9,3.5,2.7,3.5c0.5,0,1.1-0.1,1.6-0.2
			s1-0.3,1.5-0.5v2.8c-1,0.5-2.2,0.7-3.5,0.7c-1.8,0-3.3-0.5-4.2-1.6c-1-1.1-1.5-2.6-1.5-4.7c0-1.3,0.2-2.4,0.7-3.3
			c0.5-1,1.2-1.7,2.1-2.2c0.9-0.5,1.9-0.8,3.2-0.8c1.3,0,2.6,0.3,3.8,0.9l-1,2.6c-0.5-0.2-0.9-0.4-1.4-0.5
			C43.1,10.4,42.6,10.3,42.1,10.3z"/>
		<path fill="#673ab7" d="M55.8,16.3c0,0.8-0.2,1.4-0.6,2c-0.4,0.6-0.9,1-1.7,1.4C52.8,20,52,20.2,51,20.2c-0.8,0-1.5-0.1-2-0.2
			c-0.6-0.1-1.1-0.3-1.7-0.6v-3c0.6,0.3,1.3,0.6,2,0.8c0.7,0.2,1.3,0.3,1.9,0.3c0.5,0,0.8-0.1,1.1-0.3c0.2-0.2,0.3-0.4,0.3-0.7
			c0-0.2,0-0.3-0.1-0.4c-0.1-0.1-0.2-0.3-0.4-0.4c-0.2-0.1-0.7-0.4-1.6-0.8c-0.8-0.4-1.4-0.7-1.8-1.1c-0.4-0.3-0.7-0.7-0.9-1.2
			c-0.2-0.4-0.3-1-0.3-1.6c0-1.1,0.4-2,1.2-2.6c0.8-0.6,1.9-0.9,3.4-0.9c1.3,0,2.6,0.3,3.9,0.9l-1,2.6c-1.1-0.5-2.1-0.8-3-0.8
			c-0.4,0-0.7,0.1-0.9,0.2c-0.2,0.2-0.3,0.3-0.3,0.6c0,0.2,0.1,0.5,0.4,0.6c0.2,0.2,0.9,0.5,2,1c1.1,0.5,1.8,1,2.2,1.5
			C55.6,14.8,55.8,15.4,55.8,16.3z"/>
		<path fill="#673ab7" d="M65.7,16.3c0,0.8-0.2,1.4-0.6,2c-0.4,0.6-0.9,1-1.7,1.4c-0.7,0.3-1.6,0.5-2.5,0.5c-0.8,0-1.5-0.1-2-0.2
			c-0.6-0.1-1.1-0.3-1.7-0.6v-3c0.6,0.3,1.3,0.6,2,0.8c0.7,0.2,1.3,0.3,1.9,0.3c0.5,0,0.8-0.1,1.1-0.3c0.2-0.2,0.3-0.4,0.3-0.7
			c0-0.2,0-0.3-0.1-0.4c-0.1-0.1-0.2-0.3-0.4-0.4c-0.2-0.1-0.7-0.4-1.6-0.8c-0.8-0.4-1.4-0.7-1.8-1.1c-0.4-0.3-0.7-0.7-0.9-1.2
			c-0.2-0.4-0.3-1-0.3-1.6c0-1.1,0.4-2,1.2-2.6c0.8-0.6,1.9-0.9,3.4-0.9c1.3,0,2.6,0.3,3.9,0.9l-1,2.6c-1.1-0.5-2.1-0.8-3-0.8
			c-0.4,0-0.7,0.1-0.9,0.2c-0.2,0.2-0.3,0.3-0.3,0.6c0,0.2,0.1,0.5,0.4,0.6c0.2,0.2,0.9,0.5,2,1c1.1,0.5,1.8,1,2.2,1.5
			C65.5,14.8,65.7,15.4,65.7,16.3z"/>
		<path fill="#673ab7" d="M77.9,13.6c0,2-0.6,3.6-1.7,4.7c-1.1,1.1-2.7,1.7-4.7,1.7h-4V7.7h4.2c2,0,3.5,0.5,4.5,1.5
			C77.4,10.3,77.9,11.7,77.9,13.6z M74.5,13.7c0-1.1-0.2-2-0.7-2.5c-0.4-0.5-1.1-0.8-2-0.8h-1v6.9h0.7c1,0,1.7-0.3,2.2-0.9
			C74.3,15.8,74.5,14.9,74.5,13.7z"/>
	</g>
	<g>
		<path fill="#673ab7" d="M78.6,20l5-12.3h1.9L91,20h-3.3l-3.1-7.5L81.8,20H78.6z"/>
	</g>
</g>
</svg>
